# xmcd
# 
# Track frame offsets:
#     187
#     38660
#     63042
#     91425
#     118485
#     148397
#     196645
#     236255
#     285115
#     316447
# 
# Disc length: 4594
# 
# Revision: 1
# Processed by: cddbd v1.5.2PL0 Copyright (c) Steve Scherf et al.
# Submitted via: BonkEnc v1.0.8
# 
DISCID=8511f00a
DTITLE=ジョン・コルトレーン - ＪＯＨＮ　ＣＯＬＴＲＡＮＥ　ＡＮＴＨＯＬＯＧＹ　１９５６−１９５８
DYEAR=1997
DGENRE=Jazz
TTITLE0=トレーンズ・ブルース
TTITLE1=ソウルトレーン
TTITLE2=コートにすみれを
TTITLE3=アイ・ヒア・ア・ラプソディ
TTITLE4=ナッティ
TTITLE5=ブルー・トレイン
TTITLE6=降っても晴れても
TTITLE7=アイ・ウォント・トゥ・トーク・アバウト・ユー
TTITLE8=スプリング・イズ・ヒア
TTITLE9=ジャスト・フレンズ
EXTD=YEAR: 1997-07-30
EXTT0=
EXTT1=
EXTT2=
EXTT3=
EXTT4=
EXTT5=
EXTT6=
EXTT7=
EXTT8=
EXTT9=
PLAYORDER=
